<svg width="235" height="62" viewBox="0 0 235 62" fill="none" xmlns="http://www.w3.org/2000/svg">
<path d="M57.9098 56C52.889 56 49.264 54.75 47.0348 52.25C44.8265 49.75 43.7223 45.7708 43.7223 40.3125V34.9375H54.5973V41.8125C54.5973 43.0833 54.7848 44.0833 55.1598 44.8125C55.5556 45.5208 56.2327 45.875 57.191 45.875C58.191 45.875 58.8785 45.5833 59.2535 45C59.6494 44.4167 59.8473 43.4583 59.8473 42.125C59.8473 40.4375 59.6806 39.0312 59.3473 37.9062C59.014 36.7604 58.4306 35.6771 57.5973 34.6562C56.7848 33.6146 55.6494 32.4062 54.191 31.0312L49.2535 26.3438C45.566 22.8646 43.7223 18.8854 43.7223 14.4062C43.7223 9.71875 44.8056 6.14583 46.9723 3.6875C49.1598 1.22917 52.316 0 56.441 0C61.4827 0 65.0556 1.34375 67.1598 4.03125C69.2848 6.71875 70.3473 10.8021 70.3473 16.2812H59.1598V12.5C59.1598 11.75 58.941 11.1667 58.5035 10.75C58.0869 10.3333 57.514 10.125 56.7848 10.125C55.9098 10.125 55.264 10.375 54.8473 10.875C54.4515 11.3542 54.2535 11.9792 54.2535 12.75C54.2535 13.5208 54.4619 14.3542 54.8785 15.25C55.2952 16.1458 56.1181 17.1771 57.3473 18.3438L63.691 24.4375C64.9619 25.6458 66.1285 26.9271 67.191 28.2812C68.2535 29.6146 69.1077 31.1771 69.7535 32.9688C70.3994 34.7396 70.7223 36.9062 70.7223 39.4688C70.7223 44.6354 69.764 48.6875 67.8473 51.625C65.9515 54.5417 62.639 56 57.9098 56Z" fill="#00FFA2"/>
<path d="M95.7223 61.3438L86.9723 55.5938C85.9723 55.8646 84.941 56 83.8785 56C79.5869 56 76.3056 54.7292 74.0348 52.1875C71.7848 49.6458 70.6598 45.9375 70.6598 41.0625V14.4688C70.6598 9.73958 71.816 6.14583 74.1285 3.6875C76.4619 1.22917 79.8265 0 84.2223 0C88.6181 0 91.9723 1.22917 94.2848 3.6875C96.6181 6.14583 97.7848 9.73958 97.7848 14.4688V41.0625C97.7848 45.6042 96.764 49.1771 94.7223 51.7812L99.441 54.7812L95.7223 61.3438ZM84.2223 45.875C85.014 45.875 85.5765 45.5833 85.9098 45C86.264 44.4167 86.4827 43.6979 86.566 42.8438C86.6702 41.9896 86.7223 41.1667 86.7223 40.375V14.6562C86.7223 13.4896 86.5556 12.4479 86.2223 11.5312C85.9098 10.5938 85.2223 10.125 84.1598 10.125C83.0765 10.125 82.3681 10.5833 82.0348 11.5C81.7015 12.3958 81.5348 13.4375 81.5348 14.625V40.5938C81.5348 41.3229 81.5765 42.1042 81.6598 42.9375C81.764 43.75 82.0035 44.4479 82.3785 45.0312C82.7535 45.5938 83.3681 45.875 84.2223 45.875Z" fill="#00FFA2"/>
<path d="M112.754 56C108.17 56 104.795 54.7188 102.629 52.1562C100.462 49.5729 99.3785 45.7812 99.3785 40.7812V0.5H110.066V40.3438C110.066 41.2604 110.118 42.1458 110.222 43C110.326 43.8333 110.566 44.5208 110.941 45.0625C111.316 45.6042 111.92 45.875 112.754 45.875C113.608 45.875 114.222 45.6146 114.597 45.0938C114.972 44.5521 115.201 43.8542 115.285 43C115.389 42.1458 115.441 41.2604 115.441 40.3438V0.5H126.129V40.7812C126.129 45.7812 125.045 49.5729 122.879 52.1562C120.712 54.7188 117.337 56 112.754 56Z" fill="#00FFA2"/>
<path d="M125.847 55.5L131.16 0.5H149.816L155.035 55.5H144.629L143.847 46.625H137.222L136.535 55.5H125.847ZM138.004 37.8438H143.004L140.597 9.875H140.097L138.004 37.8438Z" fill="#00FFA2"/>
<path d="M155.41 55.5V0.5H170.535C174.493 0.5 177.472 1.60417 179.472 3.8125C181.472 6 182.472 9.20833 182.472 13.4375V39.1875C182.472 44.3958 181.556 48.4167 179.722 51.25C177.91 54.0833 174.722 55.5 170.16 55.5H155.41ZM166.472 45.7812H168.379C170.399 45.7812 171.41 44.8021 171.41 42.8438V14.4688C171.41 12.6354 171.16 11.4583 170.66 10.9375C170.181 10.3958 169.191 10.125 167.691 10.125H166.472V45.7812Z" fill="#00FFA2"/>
<path d="M182.535 55.5V45.5L195.129 10.625H183.754V0.5H206.722V10.125L193.91 45.375H206.191V55.5H182.535Z" fill="#F0F0F0"/>
<path d="M207.222 55.5V0.5H224.097C226.91 0.5 229.035 1.14583 230.472 2.4375C231.91 3.70833 232.868 5.5 233.347 7.8125C233.847 10.1042 234.097 12.8021 234.097 15.9062C234.097 18.9062 233.712 21.3021 232.941 23.0938C232.191 24.8854 230.764 26.125 228.66 26.8125C230.389 27.1667 231.597 28.0312 232.285 29.4062C232.993 30.7604 233.347 32.5208 233.347 34.6875V55.5H222.504V33.9688C222.504 32.3646 222.17 31.375 221.504 31C220.858 30.6042 219.806 30.4062 218.347 30.4062V55.5H207.222ZM218.41 20.875H221.066C222.587 20.875 223.347 19.2188 223.347 15.9062C223.347 13.7604 223.181 12.3542 222.847 11.6875C222.514 11.0208 221.889 10.6875 220.972 10.6875H218.41V20.875Z" fill="#F0F0F0"/>
<path d="M32.9845 11.1107C32.3431 11.5039 31.8842 12.1358 31.7087 12.8674C31.5332 13.599 31.6555 14.3703 32.0487 15.0117C32.442 15.6531 33.0739 16.1121 33.8055 16.2876C34.5371 16.4631 35.3084 16.3407 35.9498 15.9475C36.5912 15.5543 37.0502 14.9224 37.2256 14.1908C37.4011 13.4592 37.2788 12.6879 36.8856 12.0465C36.4924 11.405 35.8605 10.9461 35.1289 10.7706C34.3973 10.5951 33.6259 10.7174 32.9845 11.1107ZM31.1129 18.9128C30.4715 19.306 30.0126 19.9379 29.8371 20.6695C29.6616 21.4011 29.7839 22.1725 30.1771 22.8139C30.5704 23.4553 31.2023 23.9142 31.9339 24.0897C32.6655 24.2652 33.4368 24.1429 34.0782 23.7497C34.7196 23.3564 35.1786 22.7245 35.354 21.9929C35.5295 21.2613 35.4072 20.49 35.014 19.8486C34.6208 19.2072 33.9889 18.7483 33.2573 18.5728C32.5257 18.3973 31.7544 18.5196 31.1129 18.9128ZM15.1197 25.3902C13.8369 26.1766 12.919 27.4405 12.568 28.9036C12.217 30.3668 12.4617 31.9095 13.2481 33.1923C14.0346 34.4751 15.2984 35.393 16.7616 35.744C18.2247 36.095 19.7674 35.8504 21.0503 35.0639C22.3331 34.2775 23.2509 33.0137 23.6019 31.5505C23.9529 30.0873 23.7083 28.5446 22.9218 27.2618C22.1354 25.979 20.8716 25.0611 19.4084 24.7101C17.9452 24.3591 16.4025 24.6037 15.1197 25.3902Z" fill="#00FFA2"/>
<path d="M37.4098 5.98914L37.4098 0.325525C35.1851 0.46988 32.9624 1.14209 30.9309 2.38755L30.9551 2.37272L6.77073 17.1991C0.0958543 21.2912 -2.00033 30.0296 2.09175 36.7044L13.7749 55.7617C14.6912 57.2541 16.029 58.4416 17.6196 59.1742C19.2102 59.9069 20.9822 60.1518 22.7119 59.8782C24.4416 59.6045 26.0515 58.8245 27.3383 57.6367C28.625 56.4488 29.531 54.9063 29.9418 53.204L31.776 45.5579C32.5187 42.4616 34.6809 39.9407 37.4098 38.518V32.2688C36.1296 32.6713 34.8893 33.2345 33.7134 33.9554C29.9407 36.2683 27.3142 39.9082 26.2848 44.1994L24.4506 51.8455C24.3053 52.4564 23.9818 53.0104 23.5213 53.4373C23.0607 53.8642 22.4838 54.1448 21.8636 54.2435C21.2435 54.3421 20.608 54.2545 20.0377 53.9916C19.4674 53.7287 18.9879 53.3024 18.6602 52.7668L6.97698 33.7095C4.53063 29.7191 5.79396 24.4527 9.78437 22.0063L33.9687 7.17993C35.0493 6.51748 36.2234 6.12705 37.4098 5.98914Z" fill="#00FFA2"/>
</svg>
